<?xml version="1.0" standalone="no"?><!DOCTYPE svg PUBLIC "-//W3C//DTD SVG 1.1//EN" "http://www.w3.org/Graphics/SVG/1.1/DTD/svg11.dtd"><svg t="1620731143697" class="icon" viewBox="0 0 1024 1024" version="1.1" xmlns="http://www.w3.org/2000/svg" p-id="3837" xmlns:xlink="http://www.w3.org/1999/xlink" width="200" height="200"><defs><style type="text/css"></style></defs><path d="M879.00662474 21.81991902H230.61778044c-41.94810307 0-76.04075616 34.09265308-76.04075615 76.04075617v110.29051821h-31.10758206c-35.34952507 0-64.10047213 28.75094705-64.10047213 64.10047213 0 35.34952507 28.59383805 64.10047213 64.10047213 64.10047213h31.10758206v366.84951572h-31.10758206c-35.34952507 0-64.10047213 28.59383805-64.10047213 64.10047213s28.59383805 64.10047213 64.10047213 64.10047211h31.10758206v107.30544722c0 41.94810307 34.09265308 76.04075616 76.04075615 76.04075615h648.3888443c41.94810307 0 76.04075616-34.09265308 76.04075613-76.04075615v-840.53315167c0-42.26232108-34.09265308-76.35497415-76.04075613-76.35497415zM634.85923823 589.92606415c0 22.15236905-17.91042605 40.06279507-40.06279507 40.06279507s-40.06279507-17.91042605-40.06279509-40.06279507V413.80687482c0-22.15236905 17.91042605-40.06279507 40.06279509-40.0627951s40.06279507 17.91042605 40.06279507 40.0627951v176.11918933z m190.57321739 128.51516226c0 21.83815103-17.75331703 39.59146809-39.59146807 39.59146808h-0.785545c-21.83815103 0-39.59146809-17.75331703-39.59146809-39.59146808V285.29171255c0-21.83815103 17.75331703-39.59146809 39.59146809-39.59146807h0.785545c21.83815103 0 39.59146809 17.75331703 39.59146807 39.59146807v433.14951386z" p-id="3838" data-spm-anchor-id="a313x.7781069.0.i0" class="selected"></path></svg>